<svg xmlns="http://www.w3.org/2000/svg" width="56" height="57" viewBox="0 0 56 57"><g><g><g><path fill="#353535" d="M28.045 24.732a3.862 3.862 0 1 1-7.725 0 3.862 3.862 0 0 1 7.725 0z"/></g><g><path fill="#353535" d="M33.212 17.896c.16.408.348 1.021.4 2.151.055 1.222.067 1.588.067 4.683 0 3.093-.012 3.46-.068 4.682-.051 1.13-.24 1.743-.399 2.151a3.838 3.838 0 0 1-2.199 2.2c-.408.158-1.022.347-2.151.398-1.222.056-1.588.068-4.683.068-3.094 0-3.46-.012-4.682-.068-1.13-.051-1.743-.24-2.151-.399a3.588 3.588 0 0 1-1.333-.866 3.592 3.592 0 0 1-.867-1.333c-.158-.408-.347-1.021-.398-2.151-.056-1.222-.068-1.589-.068-4.682 0-3.095.012-3.461.068-4.683.051-1.13.24-1.743.398-2.151.186-.504.483-.959.868-1.333a3.585 3.585 0 0 1 1.332-.867c.408-.158 1.022-.347 2.151-.399 1.222-.055 1.588-.067 4.683-.067 3.093 0 3.46.012 4.682.068 1.13.051 1.743.24 2.151.398.504.186.959.482 1.333.867.385.374.68.83.866 1.333zm-3.082 6.833a5.95 5.95 0 1 0-11.9 0 5.95 5.95 0 0 0 11.9 0zm1.625-6.185a1.39 1.39 0 1 0-2.78 0 1.39 1.39 0 0 0 2.78 0z"/></g><g><path fill="#353535" d="M44.358 24.73c0 11.142-9.036 20.178-20.179 20.178C13.036 44.908 4 35.872 4 24.73 4 13.586 13.036 4.55 24.18 4.55c11.142 0 20.178 9.036 20.178 20.18zm-8.592 0c0-3.148-.013-3.543-.07-4.778-.056-1.234-.251-2.076-.538-2.813a5.68 5.68 0 0 0-1.336-2.052 5.681 5.681 0 0 0-2.053-1.337c-.737-.286-1.58-.482-2.813-.538-1.235-.057-1.63-.07-4.777-.07-3.147 0-3.542.013-4.777.07-1.234.056-2.076.252-2.813.538a5.677 5.677 0 0 0-2.052 1.337 5.677 5.677 0 0 0-1.337 2.052c-.286.737-.482 1.58-.538 2.813-.057 1.236-.07 1.63-.07 4.777 0 3.147.013 3.542.07 4.778.056 1.233.252 2.075.539 2.812a5.68 5.68 0 0 0 1.336 2.052 5.678 5.678 0 0 0 2.052 1.337c.737.286 1.58.482 2.813.538 1.236.057 1.63.07 4.777.07 3.147 0 3.542-.013 4.777-.07 1.234-.056 2.076-.252 2.813-.538a5.924 5.924 0 0 0 3.389-3.389c.286-.737.482-1.58.538-2.813.057-1.235.07-1.63.07-4.777z"/></g></g></g></svg>