<svg xmlns="http://www.w3.org/2000/svg" width="56" height="57" viewBox="0 0 56 57"><g><g><g><path fill="#353535" d="M21.45 28.511l6.564-3.78-6.564-3.781z"/></g><g><path fill="#353535" d="M44.148 24.73c0 11.142-9.036 20.178-20.179 20.178-11.143 0-20.179-9.036-20.179-20.179 0-11.143 9.036-20.179 20.18-20.179 11.142 0 20.178 9.036 20.178 20.18zm-8.09-6.066a3.16 3.16 0 0 0-2.222-2.223c-1.973-.54-9.867-.54-9.867-.54s-7.894 0-9.867.52a3.224 3.224 0 0 0-2.223 2.243c-.52 1.973-.52 6.065-.52 6.065s0 4.113.52 6.066a3.16 3.16 0 0 0 2.223 2.222c1.994.54 9.867.54 9.867.54s7.894 0 9.867-.52a3.16 3.16 0 0 0 2.223-2.221c.519-1.974.519-6.066.519-6.066s.02-4.113-.52-6.086z"/></g></g></g></svg>