<svg xmlns="http://www.w3.org/2000/svg" width="56" height="56" viewBox="0 0 56 56"><defs><mask id="9wpsb" width="2" height="2" x="-1" y="-1"><path fill="#fff" d="M4 4h40v40H4z"/><path d="M44 24c0-11.047-8.953-20-20-20S4 12.953 4 24s8.953 20 20 20c.117 0 .234 0 .352-.008V28.43h-4.297v-5.008h4.297v-3.688c0-4.273 2.609-6.601 6.421-6.601 1.829 0 3.399.133 3.852.195v4.469H32c-2.07 0-2.477.984-2.477 2.43v3.187h4.961l-.648 5.008h-4.313v14.805C37.883 40.828 44 33.133 44 24z"/></mask><filter id="9wpsa" width="84" height="84" x="-16" y="-16" filterUnits="userSpaceOnUse"><feOffset dx="4" dy="4" in="SourceGraphic" result="FeOffset1060Out"/><feGaussianBlur in="FeOffset1060Out" result="FeGaussianBlur1061Out" stdDeviation="4 4"/></filter></defs><g><g><g filter="url(#9wpsa)"><path fill="none" d="M44 24c0-11.047-8.953-20-20-20S4 12.953 4 24s8.953 20 20 20c.117 0 .234 0 .352-.008V28.43h-4.297v-5.008h4.297v-3.688c0-4.273 2.609-6.601 6.421-6.601 1.829 0 3.399.133 3.852.195v4.469H32c-2.07 0-2.477.984-2.477 2.43v3.187h4.961l-.648 5.008h-4.313v14.805C37.883 40.828 44 33.133 44 24z" mask="url(&quot;#9wpsb&quot;)"/><path fill-opacity=".26" d="M44 24c0-11.047-8.953-20-20-20S4 12.953 4 24s8.953 20 20 20c.117 0 .234 0 .352-.008V28.43h-4.297v-5.008h4.297v-3.688c0-4.273 2.609-6.601 6.421-6.601 1.829 0 3.399.133 3.852.195v4.469H32c-2.07 0-2.477.984-2.477 2.43v3.187h4.961l-.648 5.008h-4.313v14.805C37.883 40.828 44 33.133 44 24z"/></g><path fill="#353535" d="M44 24c0-11.047-8.953-20-20-20S4 12.953 4 24s8.953 20 20 20c.117 0 .234 0 .352-.008V28.43h-4.297v-5.008h4.297v-3.688c0-4.273 2.609-6.601 6.421-6.601 1.829 0 3.399.133 3.852.195v4.469H32c-2.07 0-2.477.984-2.477 2.43v3.187h4.961l-.648 5.008h-4.313v14.805C37.883 40.828 44 33.133 44 24z"/></g></g></svg>