<?xml version="1.0" encoding="utf-8"?>
<!-- Generator: Adobe Illustrator 23.0.1, SVG Export Plug-In . SVG Version: 6.00 Build 0)  -->
<svg version="1.1" id="Шар_1" xmlns="http://www.w3.org/2000/svg" xmlns:xlink="http://www.w3.org/1999/xlink" x="0px" y="0px"
	 viewBox="0 0 5 5" style="enable-background:new 0 0 5 5;" xml:space="preserve">
<style type="text/css">
	.st0{fill:#353535;}
</style>
<g>
	<g>
		<g>
			<path class="st0" d="M2.98,2.5c0,0.26-0.21,0.48-0.48,0.48S2.02,2.76,2.02,2.5S2.24,2.02,2.5,2.02S2.98,2.24,2.98,2.5z"/>
		</g>
		<g>
			<path class="st0" d="M3.62,1.65C3.64,1.7,3.66,1.78,3.67,1.92c0.01,0.15,0.01,0.2,0.01,0.58c0,0.38,0,0.43-0.01,0.58
				C3.66,3.22,3.64,3.3,3.62,3.35C3.57,3.47,3.47,3.57,3.35,3.62C3.3,3.64,3.22,3.66,3.08,3.67C2.93,3.68,2.88,3.68,2.5,3.68
				c-0.38,0-0.43,0-0.58-0.01C1.78,3.66,1.7,3.64,1.65,3.62C1.59,3.6,1.53,3.56,1.49,3.51C1.44,3.47,1.4,3.41,1.38,3.35
				C1.36,3.3,1.34,3.22,1.33,3.08C1.32,2.93,1.32,2.88,1.32,2.5c0-0.38,0-0.43,0.01-0.58C1.34,1.78,1.36,1.7,1.38,1.65
				C1.4,1.59,1.44,1.53,1.49,1.49c0.05-0.05,0.1-0.08,0.17-0.11C1.7,1.36,1.78,1.34,1.92,1.33c0.15-0.01,0.2-0.01,0.58-0.01
				c0.38,0,0.43,0,0.58,0.01C3.22,1.34,3.3,1.36,3.35,1.38C3.41,1.4,3.47,1.44,3.51,1.49C3.56,1.53,3.6,1.59,3.62,1.65z M3.24,2.5
				c0-0.41-0.33-0.74-0.74-0.74c-0.41,0-0.74,0.33-0.74,0.74S2.09,3.24,2.5,3.24S3.24,2.91,3.24,2.5z M3.44,1.73
				c0-0.1-0.08-0.17-0.17-0.17S3.09,1.64,3.09,1.73c0,0.1,0.08,0.17,0.17,0.17S3.44,1.83,3.44,1.73z"/>
		</g>
		<g>
			<path class="st0" d="M5,2.5C5,3.88,3.88,5,2.5,5C1.12,5,0,3.88,0,2.5C0,1.12,1.12,0,2.5,0C3.88,0,5,1.12,5,2.5z M3.94,2.5
				c0-0.39,0-0.44-0.01-0.59C3.92,1.76,3.9,1.65,3.86,1.56c-0.04-0.1-0.09-0.18-0.17-0.25C3.62,1.23,3.54,1.18,3.44,1.14
				C3.35,1.1,3.24,1.08,3.09,1.07C2.94,1.07,2.89,1.06,2.5,1.06s-0.44,0-0.59,0.01C1.76,1.08,1.65,1.1,1.56,1.14
				c-0.1,0.04-0.18,0.09-0.25,0.17C1.23,1.38,1.18,1.46,1.14,1.56C1.1,1.65,1.08,1.76,1.07,1.91C1.07,2.06,1.06,2.11,1.06,2.5
				s0,0.44,0.01,0.59C1.08,3.24,1.1,3.35,1.14,3.44c0.04,0.1,0.09,0.18,0.17,0.25c0.07,0.07,0.16,0.13,0.25,0.17
				c0.09,0.04,0.2,0.06,0.35,0.07c0.15,0.01,0.2,0.01,0.59,0.01s0.44,0,0.59-0.01C3.24,3.92,3.35,3.9,3.44,3.86
				c0.19-0.07,0.35-0.23,0.42-0.42c0.04-0.09,0.06-0.2,0.07-0.35C3.93,2.94,3.94,2.89,3.94,2.5L3.94,2.5z"/>
		</g>
	</g>
</g>
</svg>
